<?xml version="1.0" encoding="UTF-8" standalone="no"?>
<!DOCTYPE svg PUBLIC "-//W3C//DTD SVG 1.1//EN"
 "http://www.w3.org/Graphics/SVG/1.1/DTD/svg11.dtd">
<!-- Generated by graphviz version 12.1.2 (0)
 -->
<!-- Title: Database Schema Pages: 1 -->
<svg width="1219pt" height="1368pt"
 viewBox="0.00 0.00 1218.75 1368.25" xmlns="http://www.w3.org/2000/svg" xmlns:xlink="http://www.w3.org/1999/xlink">
<g id="graph0" class="graph" transform="scale(1 1) rotate(0) translate(4 1364.25)">
<title>Database Schema</title>
<polygon fill="white" stroke="none" points="-4,4 -4,-1364.25 1214.75,-1364.25 1214.75,4 -4,4"/>
<!-- manufacturers -->
<g id="node1" class="node">
<title>manufacturers</title>
<polygon fill="#add8e6" stroke="none" points="1097.25,-1328.75 1097.25,-1355.25 1201.75,-1355.25 1201.75,-1328.75 1097.25,-1328.75"/>
<polygon fill="none" stroke="black" points="1097.25,-1328.75 1097.25,-1355.25 1201.75,-1355.25 1201.75,-1328.75 1097.25,-1328.75"/>
<text text-anchor="start" x="1106.38" y="-1337.95" font-family="Times,serif" font-weight="bold" font-size="14.00">manufacturers</text>
<polygon fill="none" stroke="black" points="1097.25,-1302.25 1097.25,-1328.75 1201.75,-1328.75 1201.75,-1302.25 1097.25,-1302.25"/>
<text text-anchor="start" x="1102.25" y="-1310.45" font-family="Times,serif" font-size="14.00">id (PK)</text>
<polygon fill="none" stroke="black" points="1097.25,-1275.75 1097.25,-1302.25 1201.75,-1302.25 1201.75,-1275.75 1097.25,-1275.75"/>
<text text-anchor="start" x="1102.25" y="-1283.95" font-family="Times,serif" font-size="14.00">name (UNIQUE)</text>
<polygon fill="none" stroke="black" points="1097.25,-1249.25 1097.25,-1275.75 1201.75,-1275.75 1201.75,-1249.25 1097.25,-1249.25"/>
<text text-anchor="start" x="1102.25" y="-1257.45" font-family="Times,serif" font-size="14.00">website</text>
<polygon fill="none" stroke="black" points="1097.25,-1222.75 1097.25,-1249.25 1201.75,-1249.25 1201.75,-1222.75 1097.25,-1222.75"/>
<text text-anchor="start" x="1102.25" y="-1230.95" font-family="Times,serif" font-size="14.00">created_at</text>
<polygon fill="none" stroke="black" points="1096.25,-1221.75 1096.25,-1356.25 1202.75,-1356.25 1202.75,-1221.75 1096.25,-1221.75"/>
</g>
<!-- sample_packs -->
<g id="node2" class="node">
<title>sample_packs</title>
<polygon fill="#add8e6" stroke="none" points="737,-1204.5 737,-1231 935.25,-1231 935.25,-1204.5 737,-1204.5"/>
<polygon fill="none" stroke="black" points="737,-1204.5 737,-1231 935.25,-1231 935.25,-1204.5 737,-1204.5"/>
<text text-anchor="start" x="795.62" y="-1213.7" font-family="Times,serif" font-weight="bold" font-size="14.00">sample_packs</text>
<polygon fill="none" stroke="black" points="737,-1178 737,-1204.5 935.25,-1204.5 935.25,-1178 737,-1178"/>
<text text-anchor="start" x="742" y="-1186.2" font-family="Times,serif" font-size="14.00">id (PK)</text>
<polygon fill="none" stroke="black" points="737,-1151.5 737,-1178 935.25,-1178 935.25,-1151.5 737,-1151.5"/>
<text text-anchor="start" x="742" y="-1159.7" font-family="Times,serif" font-size="14.00">manufacturer_id (FK)</text>
<polygon fill="none" stroke="black" points="737,-1125 737,-1151.5 935.25,-1151.5 935.25,-1125 737,-1125"/>
<text text-anchor="start" x="742" y="-1133.2" font-family="Times,serif" font-size="14.00">name</text>
<polygon fill="none" stroke="black" points="737,-1098.5 737,-1125 935.25,-1125 935.25,-1098.5 737,-1098.5"/>
<text text-anchor="start" x="742" y="-1106.7" font-family="Times,serif" font-size="14.00">description</text>
<polygon fill="none" stroke="black" points="737,-1072 737,-1098.5 935.25,-1098.5 935.25,-1072 737,-1072"/>
<text text-anchor="start" x="742" y="-1080.2" font-family="Times,serif" font-size="14.00">release_date</text>
<polygon fill="none" stroke="black" points="737,-1045.5 737,-1072 935.25,-1072 935.25,-1045.5 737,-1045.5"/>
<text text-anchor="start" x="742" y="-1053.7" font-family="Times,serif" font-size="14.00">created_at</text>
<polygon fill="none" stroke="black" points="737,-1019 737,-1045.5 935.25,-1045.5 935.25,-1019 737,-1019"/>
<text text-anchor="start" x="742" y="-1027.2" font-family="Times,serif" font-size="14.00">UNIQUE(manufacturer_id, name)</text>
<polygon fill="none" stroke="black" points="736,-1018 736,-1232 936.25,-1232 936.25,-1018 736,-1018"/>
</g>
<!-- sample_packs&#45;&gt;manufacturers -->
<g id="edge1" class="edge">
<title>sample_packs&#45;&gt;manufacturers</title>
<path fill="none" stroke="black" d="M943.97,-1226.88C943.97,-1226.88 1077.04,-1226.88 1077.04,-1226.88"/>
<polygon fill="black" stroke="black" points="1077.04,-1230.38 1087.04,-1226.88 1077.04,-1223.38 1077.04,-1230.38"/>
<text text-anchor="middle" x="1055.5" y="-1213.58" font-family="Times,serif" font-size="14.00">manufacturer_id</text>
</g>
<!-- categories -->
<g id="node3" class="node">
<title>categories</title>
<polygon fill="#ffffe0" stroke="none" points="1097.25,-679.75 1097.25,-706.25 1201.75,-706.25 1201.75,-679.75 1097.25,-679.75"/>
<polygon fill="none" stroke="black" points="1097.25,-679.75 1097.25,-706.25 1201.75,-706.25 1201.75,-679.75 1097.25,-679.75"/>
<text text-anchor="start" x="1120.62" y="-688.95" font-family="Times,serif" font-weight="bold" font-size="14.00">categories</text>
<polygon fill="none" stroke="black" points="1097.25,-653.25 1097.25,-679.75 1201.75,-679.75 1201.75,-653.25 1097.25,-653.25"/>
<text text-anchor="start" x="1102.25" y="-661.45" font-family="Times,serif" font-size="14.00">id (PK)</text>
<polygon fill="none" stroke="black" points="1097.25,-626.75 1097.25,-653.25 1201.75,-653.25 1201.75,-626.75 1097.25,-626.75"/>
<text text-anchor="start" x="1102.25" y="-634.95" font-family="Times,serif" font-size="14.00">name (UNIQUE)</text>
<polygon fill="none" stroke="black" points="1097.25,-600.25 1097.25,-626.75 1201.75,-626.75 1201.75,-600.25 1097.25,-600.25"/>
<text text-anchor="start" x="1102.25" y="-608.45" font-family="Times,serif" font-size="14.00">description</text>
<polygon fill="none" stroke="black" points="1097.25,-573.75 1097.25,-600.25 1201.75,-600.25 1201.75,-573.75 1097.25,-573.75"/>
<text text-anchor="start" x="1102.25" y="-581.95" font-family="Times,serif" font-size="14.00">created_at</text>
<polygon fill="none" stroke="black" points="1096.25,-572.75 1096.25,-707.25 1202.75,-707.25 1202.75,-572.75 1096.25,-572.75"/>
</g>
<!-- subcategories -->
<g id="node4" class="node">
<title>subcategories</title>
<polygon fill="#ffffe0" stroke="none" points="750.12,-548.25 750.12,-574.75 922.12,-574.75 922.12,-548.25 750.12,-548.25"/>
<polygon fill="none" stroke="black" points="750.12,-548.25 750.12,-574.75 922.12,-574.75 922.12,-548.25 750.12,-548.25"/>
<text text-anchor="start" x="797.12" y="-557.45" font-family="Times,serif" font-weight="bold" font-size="14.00">subcategories</text>
<polygon fill="none" stroke="black" points="750.12,-521.75 750.12,-548.25 922.12,-548.25 922.12,-521.75 750.12,-521.75"/>
<text text-anchor="start" x="755.12" y="-529.95" font-family="Times,serif" font-size="14.00">id (PK)</text>
<polygon fill="none" stroke="black" points="750.12,-495.25 750.12,-521.75 922.12,-521.75 922.12,-495.25 750.12,-495.25"/>
<text text-anchor="start" x="755.12" y="-503.45" font-family="Times,serif" font-size="14.00">category_id (FK)</text>
<polygon fill="none" stroke="black" points="750.12,-468.75 750.12,-495.25 922.12,-495.25 922.12,-468.75 750.12,-468.75"/>
<text text-anchor="start" x="755.12" y="-476.95" font-family="Times,serif" font-size="14.00">name</text>
<polygon fill="none" stroke="black" points="750.12,-442.25 750.12,-468.75 922.12,-468.75 922.12,-442.25 750.12,-442.25"/>
<text text-anchor="start" x="755.12" y="-450.45" font-family="Times,serif" font-size="14.00">description</text>
<polygon fill="none" stroke="black" points="750.12,-415.75 750.12,-442.25 922.12,-442.25 922.12,-415.75 750.12,-415.75"/>
<text text-anchor="start" x="755.12" y="-423.95" font-family="Times,serif" font-size="14.00">created_at</text>
<polygon fill="none" stroke="black" points="750.12,-389.25 750.12,-415.75 922.12,-415.75 922.12,-389.25 750.12,-389.25"/>
<text text-anchor="start" x="755.12" y="-397.45" font-family="Times,serif" font-size="14.00">UNIQUE(category_id, name)</text>
<polygon fill="none" stroke="black" points="749.12,-388.25 749.12,-575.75 923.12,-575.75 923.12,-388.25 749.12,-388.25"/>
</g>
<!-- subcategories&#45;&gt;categories -->
<g id="edge4" class="edge">
<title>subcategories&#45;&gt;categories</title>
<path fill="none" stroke="black" d="M931,-574.25C931,-574.25 1077.02,-574.25 1077.02,-574.25"/>
<polygon fill="black" stroke="black" points="1077.02,-577.75 1087.02,-574.25 1077.02,-570.75 1077.02,-577.75"/>
<text text-anchor="middle" x="972.14" y="-560.95" font-family="Times,serif" font-size="14.00">category_id</text>
</g>
<!-- folders -->
<g id="node5" class="node">
<title>folders</title>
<polygon fill="#90ee90" stroke="none" points="756.5,-190.5 756.5,-217 915.75,-217 915.75,-190.5 756.5,-190.5"/>
<polygon fill="none" stroke="black" points="756.5,-190.5 756.5,-217 915.75,-217 915.75,-190.5 756.5,-190.5"/>
<text text-anchor="start" x="816.25" y="-199.7" font-family="Times,serif" font-weight="bold" font-size="14.00">folders</text>
<polygon fill="none" stroke="black" points="756.5,-164 756.5,-190.5 915.75,-190.5 915.75,-164 756.5,-164"/>
<text text-anchor="start" x="761.5" y="-172.2" font-family="Times,serif" font-size="14.00">id (PK)</text>
<polygon fill="none" stroke="black" points="756.5,-137.5 756.5,-164 915.75,-164 915.75,-137.5 756.5,-137.5"/>
<text text-anchor="start" x="761.5" y="-145.7" font-family="Times,serif" font-size="14.00">parent_id (FK)</text>
<polygon fill="none" stroke="black" points="756.5,-111 756.5,-137.5 915.75,-137.5 915.75,-111 756.5,-111"/>
<text text-anchor="start" x="761.5" y="-119.2" font-family="Times,serif" font-size="14.00">name</text>
<polygon fill="none" stroke="black" points="756.5,-84.5 756.5,-111 915.75,-111 915.75,-84.5 756.5,-84.5"/>
<text text-anchor="start" x="761.5" y="-92.7" font-family="Times,serif" font-size="14.00">path_parts</text>
<polygon fill="none" stroke="black" points="756.5,-58 756.5,-84.5 915.75,-84.5 915.75,-58 756.5,-58"/>
<text text-anchor="start" x="761.5" y="-66.2" font-family="Times,serif" font-size="14.00">full_path</text>
<polygon fill="none" stroke="black" points="756.5,-31.5 756.5,-58 915.75,-58 915.75,-31.5 756.5,-31.5"/>
<text text-anchor="start" x="761.5" y="-39.7" font-family="Times,serif" font-size="14.00">created_at</text>
<polygon fill="none" stroke="black" points="756.5,-5 756.5,-31.5 915.75,-31.5 915.75,-5 756.5,-5"/>
<text text-anchor="start" x="761.5" y="-13.2" font-family="Times,serif" font-size="14.00">UNIQUE(parent_id, name)</text>
<polygon fill="none" stroke="black" points="755.5,-4 755.5,-218 916.75,-218 916.75,-4 755.5,-4"/>
</g>
<!-- folders&#45;&gt;folders -->
<g id="edge7" class="edge">
<title>folders&#45;&gt;folders</title>
<path fill="none" stroke="black" d="M747.84,-215C739.78,-215 734.56,-215 734.56,-215 734.56,-215 734.56,-269.5 734.56,-269.5 734.56,-269.5 937.69,-269.5 937.69,-269.5 937.69,-269.5 937.69,-111 937.69,-111 937.69,-111 935.92,-111 935.92,-111"/>
<polygon fill="black" stroke="black" points="935.92,-107.5 925.92,-111 935.92,-114.5 935.92,-107.5"/>
<text text-anchor="middle" x="856.87" y="-256.2" font-family="Times,serif" font-size="14.00">parent_id</text>
</g>
<!-- audio_files -->
<g id="node6" class="node">
<title>audio_files</title>
<polygon fill="#f08080" stroke="none" points="307.75,-1101.75 307.75,-1128.25 575,-1128.25 575,-1101.75 307.75,-1101.75"/>
<polygon fill="none" stroke="black" points="307.75,-1101.75 307.75,-1128.25 575,-1128.25 575,-1101.75 307.75,-1101.75"/>
<text text-anchor="start" x="410.25" y="-1110.95" font-family="Times,serif" font-weight="bold" font-size="14.00">audio_files</text>
<polygon fill="none" stroke="black" points="307.75,-1075.25 307.75,-1101.75 575,-1101.75 575,-1075.25 307.75,-1075.25"/>
<text text-anchor="start" x="312.75" y="-1083.45" font-family="Times,serif" font-size="14.00">id (PK)</text>
<polygon fill="none" stroke="black" points="307.75,-1048.75 307.75,-1075.25 575,-1075.25 575,-1048.75 307.75,-1048.75"/>
<text text-anchor="start" x="312.75" y="-1056.95" font-family="Times,serif" font-size="14.00">filename</text>
<polygon fill="none" stroke="black" points="307.75,-1022.25 307.75,-1048.75 575,-1048.75 575,-1022.25 307.75,-1022.25"/>
<text text-anchor="start" x="312.75" y="-1030.45" font-family="Times,serif" font-size="14.00">filepath (UNIQUE)</text>
<polygon fill="none" stroke="black" points="307.75,-995.75 307.75,-1022.25 575,-1022.25 575,-995.75 307.75,-995.75"/>
<text text-anchor="start" x="312.75" y="-1003.95" font-family="Times,serif" font-size="14.00">original_filename</text>
<polygon fill="none" stroke="black" points="307.75,-969.25 307.75,-995.75 575,-995.75 575,-969.25 307.75,-969.25"/>
<text text-anchor="start" x="312.75" y="-977.45" font-family="Times,serif" font-size="14.00">fingerprint (UNIQUE)</text>
<polygon fill="none" stroke="black" points="307.75,-942.75 307.75,-969.25 575,-969.25 575,-942.75 307.75,-942.75"/>
<text text-anchor="start" x="312.75" y="-950.95" font-family="Times,serif" font-size="14.00">manufacturer_id (FK)</text>
<polygon fill="none" stroke="black" points="307.75,-916.25 307.75,-942.75 575,-942.75 575,-916.25 307.75,-916.25"/>
<text text-anchor="start" x="312.75" y="-924.45" font-family="Times,serif" font-size="14.00">sample_pack_id (FK)</text>
<polygon fill="none" stroke="black" points="307.75,-889.75 307.75,-916.25 575,-916.25 575,-889.75 307.75,-889.75"/>
<text text-anchor="start" x="312.75" y="-897.95" font-family="Times,serif" font-size="14.00">category_id (FK)</text>
<polygon fill="none" stroke="black" points="307.75,-863.25 307.75,-889.75 575,-889.75 575,-863.25 307.75,-863.25"/>
<text text-anchor="start" x="312.75" y="-871.45" font-family="Times,serif" font-size="14.00">subcategory_id (FK)</text>
<polygon fill="none" stroke="black" points="307.75,-836.75 307.75,-863.25 575,-863.25 575,-836.75 307.75,-836.75"/>
<text text-anchor="start" x="312.75" y="-844.95" font-family="Times,serif" font-size="14.00">folder_id (FK)</text>
<polygon fill="none" stroke="black" points="307.75,-810.25 307.75,-836.75 575,-836.75 575,-810.25 307.75,-810.25"/>
<text text-anchor="start" x="312.75" y="-818.45" font-family="Times,serif" font-size="14.00">file_size</text>
<polygon fill="none" stroke="black" points="307.75,-783.75 307.75,-810.25 575,-810.25 575,-783.75 307.75,-783.75"/>
<text text-anchor="start" x="312.75" y="-791.95" font-family="Times,serif" font-size="14.00">duration</text>
<polygon fill="none" stroke="black" points="307.75,-757.25 307.75,-783.75 575,-783.75 575,-757.25 307.75,-757.25"/>
<text text-anchor="start" x="312.75" y="-765.45" font-family="Times,serif" font-size="14.00">file_type</text>
<polygon fill="none" stroke="black" points="307.75,-730.75 307.75,-757.25 575,-757.25 575,-730.75 307.75,-730.75"/>
<text text-anchor="start" x="312.75" y="-738.95" font-family="Times,serif" font-size="14.00">key_signature</text>
<polygon fill="none" stroke="black" points="307.75,-704.25 307.75,-730.75 575,-730.75 575,-704.25 307.75,-704.25"/>
<text text-anchor="start" x="312.75" y="-712.45" font-family="Times,serif" font-size="14.00">bpm</text>
<polygon fill="none" stroke="black" points="307.75,-677.75 307.75,-704.25 575,-704.25 575,-677.75 307.75,-677.75"/>
<text text-anchor="start" x="312.75" y="-685.95" font-family="Times,serif" font-size="14.00">sample_rate</text>
<polygon fill="none" stroke="black" points="307.75,-651.25 307.75,-677.75 575,-677.75 575,-651.25 307.75,-651.25"/>
<text text-anchor="start" x="312.75" y="-659.45" font-family="Times,serif" font-size="14.00">bit_depth</text>
<polygon fill="none" stroke="black" points="307.75,-624.75 307.75,-651.25 575,-651.25 575,-624.75 307.75,-624.75"/>
<text text-anchor="start" x="312.75" y="-632.95" font-family="Times,serif" font-size="14.00">channels</text>
<polygon fill="none" stroke="black" points="307.75,-598.25 307.75,-624.75 575,-624.75 575,-598.25 307.75,-598.25"/>
<text text-anchor="start" x="312.75" y="-606.45" font-family="Times,serif" font-size="14.00">last_modified</text>
<polygon fill="none" stroke="black" points="307.75,-571.75 307.75,-598.25 575,-598.25 575,-571.75 307.75,-571.75"/>
<text text-anchor="start" x="312.75" y="-579.95" font-family="Times,serif" font-size="14.00">created_at</text>
<polygon fill="none" stroke="black" points="307.75,-545.25 307.75,-571.75 575,-571.75 575,-545.25 307.75,-545.25"/>
<text text-anchor="start" x="312.75" y="-553.45" font-family="Times,serif" font-size="14.00">CHECK (file_size &gt; 0)</text>
<polygon fill="none" stroke="black" points="307.75,-518.75 307.75,-545.25 575,-545.25 575,-518.75 307.75,-518.75"/>
<text text-anchor="start" x="312.75" y="-526.95" font-family="Times,serif" font-size="14.00">CHECK (duration IS NULL OR duration &gt; 0)</text>
<polygon fill="none" stroke="black" points="307.75,-492.25 307.75,-518.75 575,-518.75 575,-492.25 307.75,-492.25"/>
<text text-anchor="start" x="312.75" y="-500.45" font-family="Times,serif" font-size="14.00">CHECK (bpm IS NULL OR bpm &gt; 0)</text>
<polygon fill="none" stroke="black" points="307.75,-465.75 307.75,-492.25 575,-492.25 575,-465.75 307.75,-465.75"/>
<text text-anchor="start" x="312.75" y="-473.95" font-family="Times,serif" font-size="14.00">CHECK (channels IS NULL OR channels &gt; 0)</text>
<polygon fill="none" stroke="black" points="306.75,-464.75 306.75,-1129.25 576,-1129.25 576,-464.75 306.75,-464.75"/>
</g>
<!-- audio_files&#45;&gt;manufacturers -->
<g id="edge3" class="edge">
<title>audio_files&#45;&gt;manufacturers</title>
<path fill="none" stroke="black" d="M441.38,-1133C441.38,-1224.12 441.38,-1298.12 441.38,-1298.12 441.38,-1298.12 1077,-1298.12 1077,-1298.12"/>
<polygon fill="black" stroke="black" points="1077,-1301.63 1087,-1298.13 1077,-1294.63 1077,-1301.63"/>
<text text-anchor="middle" x="631.62" y="-1284.83" font-family="Times,serif" font-size="14.00">manufacturer_id</text>
</g>
<!-- audio_files&#45;&gt;sample_packs -->
<g id="edge2" class="edge">
<title>audio_files&#45;&gt;sample_packs</title>
<path fill="none" stroke="black" d="M583.89,-1073.62C583.89,-1073.62 716.7,-1073.62 716.7,-1073.62"/>
<polygon fill="black" stroke="black" points="716.7,-1077.13 726.7,-1073.63 716.7,-1070.13 716.7,-1077.13"/>
<text text-anchor="middle" x="694.54" y="-1060.33" font-family="Times,serif" font-size="14.00">sample_pack_id</text>
</g>
<!-- audio_files&#45;&gt;categories -->
<g id="edge5" class="edge">
<title>audio_files&#45;&gt;categories</title>
<path fill="none" stroke="black" d="M583.82,-645.5C583.82,-645.5 1076.94,-645.5 1076.94,-645.5"/>
<polygon fill="black" stroke="black" points="1076.94,-649 1086.94,-645.5 1076.94,-642 1076.94,-649"/>
<text text-anchor="middle" x="798.51" y="-632.2" font-family="Times,serif" font-size="14.00">category_id</text>
</g>
<!-- audio_files&#45;&gt;subcategories -->
<g id="edge6" class="edge">
<title>audio_files&#45;&gt;subcategories</title>
<path fill="none" stroke="black" d="M583.89,-520.25C583.89,-520.25 729.78,-520.25 729.78,-520.25"/>
<polygon fill="black" stroke="black" points="729.78,-523.75 739.78,-520.25 729.78,-516.75 729.78,-523.75"/>
<text text-anchor="middle" x="698.08" y="-506.95" font-family="Times,serif" font-size="14.00">subcategory_id</text>
</g>
<!-- audio_files&#45;&gt;folders -->
<g id="edge8" class="edge">
<title>audio_files&#45;&gt;folders</title>
<path fill="none" stroke="black" d="M543.31,-460.78C543.31,-328.67 543.31,-208 543.31,-208 543.31,-208 736.36,-208 736.36,-208"/>
<polygon fill="black" stroke="black" points="736.36,-211.5 746.36,-208 736.36,-204.5 736.36,-211.5"/>
<text text-anchor="middle" x="568.06" y="-224.57" font-family="Times,serif" font-size="14.00">folder_id</text>
</g>
<!-- tags -->
<g id="node7" class="node">
<title>tags</title>
<polygon fill="#ee82ee" stroke="none" points="389.12,-285.5 389.12,-312 493.62,-312 493.62,-285.5 389.12,-285.5"/>
<polygon fill="none" stroke="black" points="389.12,-285.5 389.12,-312 493.62,-312 493.62,-285.5 389.12,-285.5"/>
<text text-anchor="start" x="429.75" y="-294.7" font-family="Times,serif" font-weight="bold" font-size="14.00">tags</text>
<polygon fill="none" stroke="black" points="389.12,-259 389.12,-285.5 493.62,-285.5 493.62,-259 389.12,-259"/>
<text text-anchor="start" x="394.12" y="-267.2" font-family="Times,serif" font-size="14.00">id (PK)</text>
<polygon fill="none" stroke="black" points="389.12,-232.5 389.12,-259 493.62,-259 493.62,-232.5 389.12,-232.5"/>
<text text-anchor="start" x="394.12" y="-240.7" font-family="Times,serif" font-size="14.00">name (UNIQUE)</text>
<polygon fill="none" stroke="black" points="389.12,-206 389.12,-232.5 493.62,-232.5 493.62,-206 389.12,-206"/>
<text text-anchor="start" x="394.12" y="-214.2" font-family="Times,serif" font-size="14.00">created_at</text>
<polygon fill="none" stroke="black" points="388.12,-205 388.12,-313 494.62,-313 494.62,-205 388.12,-205"/>
</g>
<!-- audio_files_tags -->
<g id="node8" class="node">
<title>audio_files_tags</title>
<polygon fill="#d3d3d3" stroke="none" points="9,-541.25 9,-567.75 145.75,-567.75 145.75,-541.25 9,-541.25"/>
<polygon fill="none" stroke="black" points="9,-541.25 9,-567.75 145.75,-567.75 145.75,-541.25 9,-541.25"/>
<text text-anchor="start" x="31.25" y="-550.45" font-family="Times,serif" font-weight="bold" font-size="14.00">audio_files_tags</text>
<polygon fill="none" stroke="black" points="9,-514.75 9,-541.25 145.75,-541.25 145.75,-514.75 9,-514.75"/>
<text text-anchor="start" x="14" y="-522.95" font-family="Times,serif" font-size="14.00">audio_file_id (PK, FK)</text>
<polygon fill="none" stroke="black" points="9,-488.25 9,-514.75 145.75,-514.75 145.75,-488.25 9,-488.25"/>
<text text-anchor="start" x="14" y="-496.45" font-family="Times,serif" font-size="14.00">tag_id (PK, FK)</text>
<polygon fill="none" stroke="black" points="8,-487.25 8,-568.75 146.75,-568.75 146.75,-487.25 8,-487.25"/>
</g>
<!-- audio_files_tags&#45;&gt;audio_files -->
<g id="edge9" class="edge">
<title>audio_files_tags&#45;&gt;audio_files</title>
<path fill="none" stroke="black" d="M154.57,-528C154.57,-528 287.39,-528 287.39,-528"/>
<polygon fill="black" stroke="black" points="287.39,-531.5 297.39,-528 287.39,-524.5 287.39,-531.5"/>
<text text-anchor="middle" x="256.98" y="-514.7" font-family="Times,serif" font-size="14.00">audio_file_id</text>
</g>
<!-- audio_files_tags&#45;&gt;tags -->
<g id="edge10" class="edge">
<title>audio_files_tags&#45;&gt;tags</title>
<path fill="none" stroke="black" d="M77.38,-483.28C77.38,-406.79 77.38,-259 77.38,-259 77.38,-259 368.94,-259 368.94,-259"/>
<polygon fill="black" stroke="black" points="368.94,-262.5 378.94,-259 368.94,-255.5 368.94,-262.5"/>
<text text-anchor="middle" x="94.14" y="-245.7" font-family="Times,serif" font-size="14.00">tag_id</text>
</g>
</g>
</svg>
